<svg xmlns="http://www.w3.org/2000/svg" xmlns:xlink="http://www.w3.org/1999/xlink" viewBox="0 0 1093.08 946.37"><defs><style>.cls-1{font-size:211px;fill:#04bf8a;font-family:CoolveticaRg-Regular, Coolvetica;letter-spacing:0.01em;}.cls-2{letter-spacing:0.02em;}.cls-3{letter-spacing:-0.06em;}.cls-4{letter-spacing:0.03em;}.cls-5,.cls-6{fill-rule:evenodd;}.cls-5{fill:url(#New_Gradient_Swatch_1);}.cls-6{fill:url(#New_Gradient_Swatch_1-2);}.cls-7{fill:url(#New_Gradient_Swatch_1-3);}.cls-8{fill:url(#New_Gradient_Swatch_1-4);}.cls-9{fill:url(#New_Gradient_Swatch_1-5);}.cls-10{fill:url(#New_Gradient_Swatch_1-6);}.cls-11{fill:url(#New_Gradient_Swatch_1-7);}</style><linearGradient id="New_Gradient_Swatch_1" x1="151.93" y1="655.72" x2="613.99" y2="655.72" gradientTransform="translate(314.23 -213.3) rotate(33.36)" gradientUnits="userSpaceOnUse"><stop offset="0" stop-color="#038c73"/><stop offset="1" stop-color="#04bf8a"/></linearGradient><linearGradient id="New_Gradient_Swatch_1-2" x1="381.69" y1="147.15" x2="867.13" y2="147.15" gradientTransform="translate(841.66 -137.04) rotate(80.85)" xlink:href="#New_Gradient_Swatch_1"/><linearGradient id="New_Gradient_Swatch_1-3" x1="468.27" y1="259.2" x2="538.38" y2="259.2" gradientTransform="matrix(1, 0, 0, 1, 0, 0)" xlink:href="#New_Gradient_Swatch_1"/><linearGradient id="New_Gradient_Swatch_1-4" x1="561.75" y1="319.96" x2="631.86" y2="319.96" gradientTransform="matrix(1, 0, 0, 1, 0, 0)" xlink:href="#New_Gradient_Swatch_1"/><linearGradient id="New_Gradient_Swatch_1-5" x1="524.36" y1="418.11" x2="594.47" y2="418.11" gradientTransform="matrix(1, 0, 0, 1, 0, 0)" xlink:href="#New_Gradient_Swatch_1"/><linearGradient id="New_Gradient_Swatch_1-6" x1="572.8" y1="180.04" x2="713.65" y2="180.04" gradientTransform="matrix(1, 0, 0, 1, 0, 0)" xlink:href="#New_Gradient_Swatch_1"/><linearGradient id="New_Gradient_Swatch_1-7" x1="305.15" y1="192.34" x2="555.05" y2="192.34" gradientTransform="matrix(1, 0, 0, 1, 0, 0)" xlink:href="#New_Gradient_Swatch_1"/></defs><title>PaynKiller</title><g id="Layer_2" data-name="Layer 2"><text class="cls-1" transform="translate(0 897.2)">P<tspan class="cls-2" x="114.15" y="0">aynKille</tspan><tspan class="cls-3" x="823.1" y="0">r</tspan><tspan class="cls-4" x="878.17" y="0">.io</tspan></text><path class="cls-5" d="M275.4,738.44,504.46,614.29l.47-4.34-1.07-77.45-7-32.45c-27-105.81-104.46-176.77-145-207.59L347,289.28,104,420.66C76,435.19,51.35,458.79,35,487.78,2.74,541.36,1.51,608,32.13,665c46.78,86,155.64,119.14,243.27,73.42Z" transform="translate(0.08 -87.04)"/><path class="cls-6" d="M683.87,275,683,316.78c1.88,80.92-14.78,192.71-103.48,277.14l-33.93,33.5,273.62,94.16q50.65,18.1,102.17,6.45c65.16-13.06,116.69-59.51,137.69-122.53,35-97.1-17.08-205.17-115.76-237.89Z" transform="translate(0.08 -87.04)"/><circle class="cls-7" cx="503.33" cy="259.2" r="35.05"/><circle class="cls-8" cx="596.81" cy="319.96" r="35.05"/><circle class="cls-9" cx="559.41" cy="418.11" r="35.05"/><path class="cls-10" d="M712.61,87a144.08,144.08,0,0,0-44.85,10.12C612.54,119.51,561,179.45,575.2,229.72c3.65,12.9,12,25.16,24.35,35.82a156.61,156.61,0,0,1,9-36.83c13.44-35.42,59.13-64.66,59.13-64.66a178.77,178.77,0,0,0-38.34,57.84c-4.19,10.3-10.53,25.88-10.76,46.82,0,1.44,0,2.87,0,4.33,27.28-17.32,69.61-52.61,87.26-112.15A190.32,190.32,0,0,0,712.61,87Z" transform="translate(0.08 -87.04)"/><path class="cls-11" d="M305.15,98.07a201,201,0,0,1,63.63-8.72c83.17,2.2,180,55.36,186,128.1,1.53,18.66-3.4,38.8-14.32,58.78a218.69,218.69,0,0,0-29.87-43.75c-34.93-39.75-109-55.64-109-55.64a249.77,249.77,0,0,1,78.47,56.89c10.54,11.43,26.45,28.71,37,56,.72,1.87,1.4,3.76,2.06,5.68-44.16-9.3-116.83-34.75-169.07-104A265.66,265.66,0,0,1,305.15,98.07Z" transform="translate(0.08 -87.04)"/></g></svg>